<svg width="42" height="42" viewBox="0 0 42 42" fill="none" xmlns="http://www.w3.org/2000/svg">
<path d="M27.447 0H14.553C2.793 0 0 2.793 0 14.553V27.447C0 39.207 2.793 42 14.553 42H27.447C39.207 42 42 39.207 42 27.447V14.553C42 2.793 39.207 0 27.447 0ZM33.915 29.967H30.849C29.694 29.967 29.337 29.022 27.3 26.943C25.452 25.2 24.654 24.948 24.213 24.948C23.604 24.948 23.415 25.116 23.415 25.998V28.749C23.415 29.484 23.184 29.946 21.231 29.946C17.997 29.946 14.406 27.972 11.886 24.339C8.085 19.005 7.056 14.973 7.056 14.175C7.056 13.734 7.203 13.314 8.085 13.314H11.172C11.949 13.314 12.243 13.65 12.537 14.49C14.049 18.9 16.569 22.68 17.598 22.68C17.997 22.68 18.165 22.491 18.165 21.525V17.01C18.06 14.952 16.947 14.763 16.947 14.028C16.947 13.65 17.241 13.314 17.724 13.314H22.533C23.184 13.314 23.415 13.65 23.415 14.448V20.517C23.415 21.168 23.688 21.399 23.898 21.399C24.276 21.399 24.612 21.168 25.305 20.454C27.51 17.997 29.085 14.196 29.085 14.196C29.295 13.755 29.631 13.335 30.45 13.335H33.453C34.377 13.335 34.587 13.818 34.377 14.469C33.999 16.254 30.261 21.525 30.303 21.525C29.967 22.05 29.841 22.281 30.303 22.89C30.618 23.331 31.689 24.255 32.403 25.074C33.705 26.565 34.713 27.804 34.986 28.665C35.217 29.526 34.797 29.967 33.915 29.967Z" fill="#BDBDBD"/>
</svg>
